<svg width="152" height="20" viewBox="0 0 152 20" fill="none" xmlns="http://www.w3.org/2000/svg">
<path d="M147.284 19.3275H147.687V17.4203H148.38V17.0696H146.594V17.4203H147.287V19.3275H147.284ZM148.846 19.3275H149.229V17.513H149.235L149.91 19.3275H150.191L150.875 17.513H150.881V19.3275H151.281V17.0696H150.649L150.07 18.6725H150.061L149.475 17.0696H148.846V19.3275Z" fill="#008600"/>
<path d="M12.5738 7.77101C11.5275 6.47246 9.51297 5.70145 7.57963 5.70145C3.69558 5.70145 0.492676 8.40579 0.492676 12.7101C0.492676 17.0145 3.75065 19.7159 7.66659 19.7159C9.62601 19.7159 11.4463 19.0522 12.5506 17.8696L10.4811 15.771C9.8463 16.542 8.71297 16.9594 7.69268 16.9594C5.17963 16.9594 3.94195 14.7797 3.94195 12.7101C3.94195 10.6406 5.15355 8.46087 7.57963 8.46087C8.6579 8.46087 9.78253 9.01449 10.313 9.75942L12.5738 7.77101Z" fill="#008600"/>
<path d="M14.1855 19.3275H17.4986V12.2406C17.4986 11.2725 18.0783 8.68116 21.058 8.68116C21.3595 8.68116 21.6377 8.70724 22.0812 8.81739V5.78261C21.8609 5.72753 21.5276 5.70145 21.2812 5.70145C19.545 5.70145 18.1334 6.77971 17.4203 8.29275H17.3653V6.08695H14.1942V19.3304L14.1884 19.3246L14.1855 19.3275Z" fill="#008600"/>
<path d="M26.0143 11.3855C26.1505 9.53913 27.7274 8.18261 29.6839 8.18261C31.8317 8.18261 32.7998 9.67246 32.7998 11.3855H26.0143ZM36.1129 12.8754C36.1129 8.10434 33.4085 5.70145 29.7158 5.70145C25.7129 5.70145 22.71 8.51594 22.71 12.7884C22.71 17.0609 25.7447 19.7159 29.8288 19.7159C32.3419 19.7159 34.2114 18.8348 35.5129 17.0696L33.31 15.3014C32.5651 16.3478 31.4636 17.0145 29.8056 17.0145C27.8723 17.0145 26.1679 15.6348 26.0259 13.7565H36.0926C36.1158 13.4551 36.1158 13.1768 36.1158 12.8754H36.1129Z" fill="#008600"/>
<path d="M51.9942 0H48.6812V7.77101H48.6C47.9102 6.91594 46.5855 5.70145 44.1595 5.70145C40.3797 5.70145 37.7305 8.73623 37.7305 12.6522C37.7305 16.5681 40.2116 19.7159 44.2377 19.7159C46.0841 19.7159 47.8754 18.8609 48.7884 17.3449H48.8435V19.3333H51.9884V0H51.9942ZM41.0957 12.6522C41.0957 10.5826 42.3392 8.4029 44.9015 8.4029C47.3276 8.4029 48.7942 10.6377 48.7942 12.7072C48.7942 14.7768 47.3334 16.9565 44.9015 16.9565C42.3334 16.9565 41.0957 14.7217 41.0957 12.6522Z" fill="#008600"/>
<path d="M55.287 19.3275H58.6V6.08986H55.287V19.3333V19.3275ZM54.8203 2.0058C54.8203 3.05218 55.7015 3.99421 56.9189 3.99421C58.1363 3.99421 59.0667 3.13914 59.0667 2.0058C59.0667 0.872468 58.1305 0.017395 56.9189 0.017395C55.7073 0.017395 54.8203 0.953628 54.8203 2.0058Z" fill="#008600"/>
<path d="M63.2666 8.73622V14.9188C63.2666 17.4551 64.0666 19.6116 67.5709 19.6116C68.3158 19.6116 69.197 19.4754 69.7738 19.2551L69.6637 16.6638C69.2753 16.8551 68.6956 16.942 68.255 16.942C66.7941 16.942 66.5187 16.087 66.5187 14.8985V8.74782H69.8318V6.10144H66.5187V2.25217H63.2608V6.08695H60.9448V8.73333H63.2666V8.73622Z" fill="#008600"/>
<path d="M72.3303 19.3275H75.6434V12.542H75.7245L80.9651 19.3275H85.3477L79.2521 12.0754L84.9912 6.08985H80.7419L75.7245 11.6609H75.6434V0H72.3303V19.3275Z" fill="#008600"/>
<path d="M94.6694 19.3275H97.7593V11.2725C97.7593 8.62608 96.6027 5.70145 91.8549 5.70145C89.8404 5.70145 87.7419 6.42319 86.252 7.8L87.9651 9.81449C88.8201 8.95942 90.168 8.29855 91.5795 8.29855C93.2346 8.29855 94.6143 9.09855 94.6143 10.7246V11.058C90.4781 11.058 85.5071 11.6116 85.5071 15.5536C85.5071 18.6435 88.3506 19.6667 90.4752 19.6667C92.3535 19.6667 93.9245 18.8116 94.5882 17.6522H94.6694V19.3333V19.3275ZM94.6143 13.7565C94.6143 15.8551 93.4027 17.1478 91.1361 17.1478C90.0027 17.1478 88.8201 16.7594 88.8201 15.4928C88.8201 13.5333 91.7709 13.2899 93.8694 13.2899H94.6143V13.7565Z" fill="#008600"/>
<path d="M100.556 19.3275H103.869V12.2406C103.869 11.2725 104.449 8.68116 107.429 8.68116C107.73 8.68116 108.009 8.70724 108.452 8.81739V5.78261C108.229 5.72753 107.898 5.70145 107.652 5.70145C105.916 5.70145 104.504 6.77971 103.791 8.29275H103.736V6.08695H100.565V19.3304L100.559 19.3246H100.556V19.3275Z" fill="#008600"/>
<path d="M126.51 5.70145C124.522 5.70145 123.032 6.61159 122.151 8.21449C121.406 6.72464 120.058 5.70145 118.011 5.70145C115.965 5.70145 114.484 6.91304 113.898 8.21449H113.843V6.08985H110.696V19.3333H114.009V12.0493C114.009 10.2812 114.919 8.46666 116.901 8.46666C118.583 8.46666 119.359 9.71014 119.359 11.3362V19.3333H122.672V12.1043C122.672 10.3913 123.527 8.46666 125.597 8.46666C127.667 8.46666 128.078 10.4261 128.078 12V19.3391H131.391V11.0638C131.391 8.35942 129.956 5.71304 126.507 5.71304V5.70145H126.51Z" fill="#008600"/>
<path d="M142.316 19.3275H145.406V11.2725C145.406 8.62608 144.249 5.70145 139.501 5.70145C137.487 5.70145 135.388 6.42319 133.898 7.8L135.612 9.81449C136.467 8.95942 137.814 8.29855 139.226 8.29855C140.881 8.29855 142.261 9.09855 142.261 10.7246V11.058C138.125 11.058 133.154 11.6116 133.154 15.5536C133.154 18.6435 135.991 19.6667 138.116 19.6667C139.994 19.6667 141.565 18.8116 142.229 17.6522H142.31V19.3333L142.316 19.3275ZM142.261 13.7565C142.261 15.8551 141.049 17.1478 138.783 17.1478C137.649 17.1478 136.467 16.7594 136.467 15.4928C136.467 13.5333 139.417 13.2899 141.516 13.2899H142.261V13.7565Z" fill="#008600"/>
</svg>
